<?xml version="1.0" encoding="UTF-8"?>
<svg width="58px" height="48px" viewBox="0 0 58 48" version="1.1" xmlns="http://www.w3.org/2000/svg" xmlns:xlink="http://www.w3.org/1999/xlink">
    <title>Path Copy</title>
    <g id="Page-1" stroke="none" stroke-width="1" fill="none" fill-rule="evenodd">
        <g id="zaf_admbnda_adm2_sadb_ocha_20201109-copy" fill="#6D9EFF" fill-rule="nonzero">
            <polygon id="Path-Copy" points="30.08 46.9 28.42 47.59 27.25 43.38 25.44 40.14 22.79 41.62 21.2 39.64 14.5 39.92 11.08 41.15 4.97 39.11 2.46 39.76 0.82 37.03 3.82 34.91 3.24 29.06 4.8 26.05 3.69 24.1 5.38 20.49 7.48 18.2 5.34 15.97 3.11 15.11 5.76 12.82 7.91 14.87 20.16 11.85 20.17 10.44 24.09 9.56 24.25 10.97 30.11 10.37 30.58 7.82 37.64 6.79 35.54 2.76 37.27 2.34 41.77 0.73 43.26 4.32 41.18 8.45 35.87 11.57 36.02 20.73 36.83 23.97 38.83 28.11 40.77 26 42.82 26.73 44.1 29.41 46.72 28.45 47.27 26.14 46.54 22.83 44.31 21.65 46.95 19.71 51.54 24.45 54.5 23.21 57.25 26.51 52.62 28.01 51.74 30.66 53.22 31.35 51.13 35.26 51.14 38.42 48.75 38.02 48.56 42.57 47.59 43.87 44.15 44.03 36.33 42.4 34.33 43.93 33.75 46.69"></polygon>
        </g>
    </g>
</svg>